<?xml version="1.0" encoding="UTF-8"?>
<!DOCTYPE svg PUBLIC "-//W3C//DTD SVG 1.1//EN" "http://www.w3.org/Graphics/SVG/1.1/DTD/svg11.dtd">
<!-- Creator: CorelDRAW X7 -->
<svg xmlns="http://www.w3.org/2000/svg" xml:space="preserve" width="106.987mm" height="76.5714mm" version="1.1" style="shape-rendering:geometricPrecision; text-rendering:geometricPrecision; image-rendering:optimizeQuality; fill-rule:evenodd; clip-rule:evenodd"
viewBox="0 0 10096 7225"
 xmlns:xlink="http://www.w3.org/1999/xlink">
 <defs>
  <style type="text/css">
   <![CDATA[
    .str1 {stroke:black;stroke-width:18.8724;stroke-linecap:round;stroke-linejoin:round}
    .str0 {stroke:black;stroke-width:94.3621;stroke-linecap:round;stroke-linejoin:round}
    .fil0 {fill:none}
    .fil2 {fill:none;fill-rule:nonzero}
    .fil3 {fill:#373435;fill-rule:nonzero}
    .fil1 {fill:black;fill-rule:nonzero}
   ]]>
  </style>
 </defs>
 <g id="Camada_x0020_1">
  <metadata id="CorelCorpID_0Corel-Layer"/>
  <line class="fil0 str0" x1="8014" y1="5511" x2="8014" y2= "5848" />
  <line class="fil0 str0" x1="7341" y1="5190" x2="8014" y2= "5511" />
  <line class="fil0 str0" x1="8672" y1="4517" x2="7341" y2= "5190" />
  <line class="fil0 str0" x1="7341" y1="3860" x2="8672" y2= "4517" />
  <line class="fil0 str0" x1="8672" y1="3187" x2="7341" y2= "3860" />
  <line class="fil0 str0" x1="8014" y1="2529" x2="8014" y2= "2866" />
  <path class="fil1" d="M8912 3875l0 -701 298 0c74,0 129,7 163,19 34,13 61,35 81,67 21,33 31,69 31,111 0,53 -15,96 -46,130 -31,34 -77,56 -138,65 30,18 55,37 75,59 20,21 47,59 80,113l86 137 -169 0 -102 -153c-36,-54 -61,-88 -75,-103 -13,-14 -27,-23 -42,-29 -15,-5 -39,-7 -72,-7l-29 0 0 292 -141 0zm141 -404l105 0c68,0 110,-3 127,-9 17,-5 30,-15 40,-29 9,-14 14,-32 14,-53 0,-24 -6,-43 -19,-57 -12,-15 -30,-24 -53,-28 -11,-1 -46,-2 -103,-2l-111 0 0 178z"/>
  <path id="1" class="fil1" d="M9931 3875l-134 0 0 -507c-49,46 -106,80 -173,102l0 -122c35,-12 73,-33 114,-66 41,-32 69,-69 85,-111l108 0 0 704z"/>
  <path id="2" class="fil2 str1" d="M8912 3875l0 -701 298 0c74,0 129,7 163,19 34,13 61,35 81,67 21,33 31,69 31,111 0,53 -15,96 -46,130 -31,34 -77,56 -138,65 30,18 55,37 75,59 20,21 47,59 80,113l86 137 -169 0 -102 -153c-36,-54 -61,-88 -75,-103 -13,-14 -27,-23 -42,-29 -15,-5 -39,-7 -72,-7l-29 0 0 292 -141 0zm141 -404l105 0c68,0 110,-3 127,-9 17,-5 30,-15 40,-29 9,-14 14,-32 14,-53 0,-24 -6,-43 -19,-57 -12,-15 -30,-24 -53,-28 -11,-1 -46,-2 -103,-2l-111 0 0 178z"/>
  <path id="3" class="fil2 str1" d="M9931 3875l-134 0 0 -507c-49,46 -106,80 -173,102l0 -122c35,-12 73,-33 114,-66 41,-32 69,-69 85,-111l108 0 0 704z"/>
  <path class="fil1" d="M9225 5374l-134 0 0 -507c-49,46 -107,80 -174,102l0 -123c35,-11 73,-33 114,-65 42,-32 70,-69 85,-112l109 0 0 705z"/>
  <path id="1" class="fil1" d="M9456 5374l0 -701 298 0c75,0 129,6 163,19 34,13 61,35 82,67 20,32 30,69 30,110 0,53 -15,97 -46,131 -31,34 -77,56 -138,65 31,17 56,37 75,58 20,22 47,60 81,114l85 137 -169 0 -101 -153c-37,-55 -62,-89 -75,-103 -14,-14 -28,-24 -43,-29 -15,-5 -39,-8 -72,-8l-28 0 0 293 -142 0zm142 -404l104 0c68,0 111,-3 128,-9 16,-6 30,-16 39,-30 10,-14 15,-31 15,-52 0,-24 -7,-43 -19,-58 -13,-14 -31,-23 -54,-27 -11,-2 -46,-3 -103,-3l-110 0 0 179z"/>
  <path id="2" class="fil2 str1" d="M9225 5374l-134 0 0 -507c-49,46 -107,80 -174,102l0 -123c35,-11 73,-33 114,-65 42,-32 70,-69 85,-112l109 0 0 705z"/>
  <path id="3" class="fil2 str1" d="M9456 5374l0 -701 298 0c75,0 129,6 163,19 34,13 61,35 82,67 20,32 30,69 30,110 0,53 -15,97 -46,131 -31,34 -77,56 -138,65 31,17 56,37 75,58 20,22 47,60 81,114l85 137 -169 0 -101 -153c-37,-55 -62,-89 -75,-103 -14,-14 -28,-24 -43,-29 -15,-5 -39,-8 -72,-8l-28 0 0 293 -142 0zm142 -404l104 0c68,0 111,-3 128,-9 16,-6 30,-16 39,-30 10,-14 15,-31 15,-52 0,-24 -7,-43 -19,-58 -13,-14 -31,-23 -54,-27 -11,-2 -46,-3 -103,-3l-110 0 0 179z"/>
  <line class="fil0 str0" x1="8014" y1="2866" x2="8672" y2= "3187" />
  <line class="fil0 str0" x1="1041" y1="3355" x2="1714" y2= "3355" />
  <line class="fil0 str0" x1="1041" y1="5022" x2="1714" y2= "5022" />
  <line class="fil0 str0" x1="1378" y1="3034" x2="1378" y2= "3692" />
  <line class="fil0 str0" x1="1378" y1="5848" x2="1378" y2= "5511" />
  <path class="fil0 str0" d="M1378 4181m1315 0c0,719 -597,1315 -1315,1315 -734,0 -1331,-596 -1331,-1315 0,-719 597,-1315 1331,-1315 718,0 1315,596 1315,1315zm-1315 0"/>
  <polygon class="fil1" points="2622,2881 2372,2180 2525,2180 2703,2699 2874,2180 3024,2180 2775,2881 "/>
  <path id="1" class="fil1" d="M3409 2881l-134 0 0 -507c-49,46 -107,80 -173,102l0 -122c35,-12 73,-33 114,-66 41,-32 69,-69 84,-111l109 0 0 704z"/>
  <polygon id="2" class="fil2 str1" points="2622,2881 2372,2180 2525,2180 2703,2699 2874,2180 3024,2180 2775,2881 "/>
  <path id="3" class="fil2 str1" d="M3409 2881l-134 0 0 -507c-49,46 -107,80 -173,102l0 -122c35,-12 73,-33 114,-66 41,-32 69,-69 84,-111l109 0 0 704z"/>
  <path class="fil1" d="M2756 6200l-134 0 0 -508c-49,46 -107,80 -173,102l0 -122c35,-11 73,-33 114,-65 41,-32 69,-70 84,-112l109 0 0 705z"/>
  <path id="1" class="fil1" d="M3411 6075l0 125 -471 0c5,-48 21,-92 46,-135 26,-42 76,-98 151,-168 61,-56 98,-95 111,-115 19,-28 28,-55 28,-82 0,-30 -8,-53 -24,-69 -16,-17 -38,-25 -67,-25 -28,0 -50,9 -66,26 -17,17 -26,45 -29,84l-134 -13c8,-74 33,-128 75,-160 42,-32 95,-48 158,-48 69,0 123,19 163,56 39,37 59,84 59,139 0,32 -6,62 -17,91 -11,28 -29,58 -54,90 -16,20 -45,50 -88,89 -42,39 -69,65 -81,78 -11,13 -20,25 -27,37l267 0z"/>
  <polygon id="2" class="fil1" points="3711,6200 3460,5499 3613,5499 3791,6018 3962,5499 4113,5499 3864,6200 "/>
  <path id="3" class="fil2 str1" d="M2756 6200l-134 0 0 -508c-49,46 -107,80 -173,102l0 -122c35,-11 73,-33 114,-65 41,-32 69,-70 84,-112l109 0 0 705z"/>
  <path id="4" class="fil2 str1" d="M3411 6075l0 125 -471 0c5,-48 21,-92 46,-135 26,-42 76,-98 151,-168 61,-56 98,-95 111,-115 19,-28 28,-55 28,-82 0,-30 -8,-53 -24,-69 -16,-17 -38,-25 -67,-25 -28,0 -50,9 -66,26 -17,17 -26,45 -29,84l-134 -13c8,-74 33,-128 75,-160 42,-32 95,-48 158,-48 69,0 123,19 163,56 39,37 59,84 59,139 0,32 -6,62 -17,91 -11,28 -29,58 -54,90 -16,20 -45,50 -88,89 -42,39 -69,65 -81,78 -11,13 -20,25 -27,37l267 0z"/>
  <polygon id="5" class="fil2 str1" points="3711,6200 3460,5499 3613,5499 3791,6018 3962,5499 4113,5499 3864,6200 "/>
  <line class="fil0 str0" x1="1378" y1="2529" x2="1378" y2= "2866" />
  <line class="fil0 str0" x1="8014" y1="1199" x2="1378" y2= "1199" />
  <line class="fil0 str0" x1="1378" y1="2529" x2="1378" y2= "1199" />
  <line class="fil0 str0" x1="8014" y1="2529" x2="8014" y2= "1199" />
  <line class="fil0 str0" x1="1378" y1="7178" x2="1378" y2= "5848" />
  <line class="fil0 str0" x1="8014" y1="7178" x2="8014" y2= "5848" />
  <line class="fil0 str0" x1="8014" y1="7178" x2="1378" y2= "7178" />
  <g>
   <path class="fil3" d="M5960 759l-3285 0 0 -94 3285 0 0 94zm-39 -294l449 247 -449 247 0 -494z"/>
  </g>
  <path class="fil3" d="M4385 80l0 -80 70 0 0 80 -70 0zm0 492l0 -415 70 0 0 415 -70 0z"/>
 </g>
</svg>
