<?xml version="1.0" encoding="UTF-8"?>
<!DOCTYPE svg PUBLIC "-//W3C//DTD SVG 1.1//EN" "http://www.w3.org/Graphics/SVG/1.1/DTD/svg11.dtd">
<!-- Creator: CorelDRAW X7 -->
<svg xmlns="http://www.w3.org/2000/svg" xml:space="preserve" width="44.4497mm" height="31.771mm" version="1.1" style="shape-rendering:geometricPrecision; text-rendering:geometricPrecision; image-rendering:optimizeQuality; fill-rule:evenodd; clip-rule:evenodd"
viewBox="0 0 1752 1252"
 xmlns:xlink="http://www.w3.org/1999/xlink">
 <defs>
  <style type="text/css">
   <![CDATA[
    .str1 {stroke:black;stroke-width:7.88154;stroke-linecap:round;stroke-linejoin:round}
    .str0 {stroke:black;stroke-width:16.3503;stroke-linecap:round;stroke-linejoin:round}
    .fil0 {fill:none}
    .fil2 {fill:none;fill-rule:nonzero}
    .fil3 {fill:#373435;fill-rule:nonzero}
    .fil1 {fill:black;fill-rule:nonzero}
   ]]>
  </style>
 </defs>
 <g id="Camada_x0020_1">
  <metadata id="CorelCorpID_0Corel-Layer"/>
  <line class="fil0 str0" x1="1389" y1="955" x2="1389" y2= "1013" />
  <line class="fil0 str0" x1="1272" y1="899" x2="1389" y2= "955" />
  <line class="fil0 str0" x1="1503" y1="783" x2="1272" y2= "899" />
  <line class="fil0 str0" x1="1272" y1="669" x2="1503" y2= "783" />
  <line class="fil0 str0" x1="1503" y1="552" x2="1272" y2= "669" />
  <line class="fil0 str0" x1="1389" y1="438" x2="1389" y2= "497" />
  <path class="fil1" d="M1544 671l0 -121 52 0c13,0 22,1 28,3 6,3 11,6 14,12 4,6 6,12 6,19 0,9 -3,17 -8,23 -6,6 -14,9 -24,11 5,3 9,6 13,10 3,4 8,10 14,20l14 23 -29 0 -17 -26c-7,-9 -11,-15 -13,-18 -3,-2 -5,-4 -8,-5 -2,-1 -7,-1 -12,-1l-5 0 0 50 -25 0zm25 -70l18 0c12,0 19,0 22,-1 3,-1 5,-3 7,-5 1,-3 2,-6 2,-9 0,-4 -1,-8 -3,-10 -2,-3 -5,-4 -9,-5 -2,0 -8,0 -18,0l-19 0 0 30z"/>
  <path id="1" class="fil1" d="M1721 671l-23 0 0 -87c-9,8 -19,13 -30,17l0 -21c6,-2 12,-6 19,-11 8,-6 12,-12 15,-20l19 0 0 122z"/>
  <path id="2" class="fil2 str1" d="M1544 671l0 -121 52 0c13,0 22,1 28,3 6,3 11,6 14,12 4,6 6,12 6,19 0,9 -3,17 -8,23 -6,6 -14,9 -24,11 5,3 9,6 13,10 3,4 8,10 14,20l14 23 -29 0 -17 -26c-7,-9 -11,-15 -13,-18 -3,-2 -5,-4 -8,-5 -2,-1 -7,-1 -12,-1l-5 0 0 50 -25 0zm25 -70l18 0c12,0 19,0 22,-1 3,-1 5,-3 7,-5 1,-3 2,-6 2,-9 0,-4 -1,-8 -3,-10 -2,-3 -5,-4 -9,-5 -2,0 -8,0 -18,0l-19 0 0 30z"/>
  <path id="3" class="fil2 str1" d="M1721 671l-23 0 0 -87c-9,8 -19,13 -30,17l0 -21c6,-2 12,-6 19,-11 8,-6 12,-12 15,-20l19 0 0 122z"/>
  <path class="fil1" d="M1598 931l-23 0 0 -88c-8,8 -18,14 -30,18l0 -21c6,-2 13,-6 20,-12 7,-5 12,-12 15,-19l18 0 0 122z"/>
  <path id="1" class="fil1" d="M1639 931l0 -121 51 0c13,0 23,1 28,3 6,2 11,6 15,12 3,5 5,12 5,19 0,9 -3,16 -8,22 -5,6 -13,10 -24,12 5,3 10,6 13,10 3,3 8,10 14,19l15 24 -30 0 -17 -26c-6,-10 -11,-16 -13,-18 -2,-3 -5,-4 -8,-5 -2,-1 -6,-2 -12,-2l-5 0 0 51 -24 0zm24 -70l18 0c12,0 19,0 22,-1 3,-1 5,-3 7,-6 2,-2 3,-5 3,-9 0,-4 -1,-7 -4,-10 -2,-2 -5,-4 -9,-4 -2,-1 -8,-1 -18,-1l-19 0 0 31z"/>
  <path id="2" class="fil2 str1" d="M1598 931l-23 0 0 -88c-8,8 -18,14 -30,18l0 -21c6,-2 13,-6 20,-12 7,-5 12,-12 15,-19l18 0 0 122z"/>
  <path id="3" class="fil2 str1" d="M1639 931l0 -121 51 0c13,0 23,1 28,3 6,2 11,6 15,12 3,5 5,12 5,19 0,9 -3,16 -8,22 -5,6 -13,10 -24,12 5,3 10,6 13,10 3,3 8,10 14,19l15 24 -30 0 -17 -26c-6,-10 -11,-16 -13,-18 -2,-3 -5,-4 -8,-5 -2,-1 -6,-2 -12,-2l-5 0 0 51 -24 0zm24 -70l18 0c12,0 19,0 22,-1 3,-1 5,-3 7,-6 2,-2 3,-5 3,-9 0,-4 -1,-7 -4,-10 -2,-2 -5,-4 -9,-4 -2,-1 -8,-1 -18,-1l-19 0 0 31z"/>
  <line class="fil0 str0" x1="1389" y1="497" x2="1503" y2= "552" />
  <line class="fil0 str0" x1="180" y1="581" x2="297" y2= "581" />
  <line class="fil0 str0" x1="180" y1="870" x2="297" y2= "870" />
  <line class="fil0 str0" x1="239" y1="526" x2="239" y2= "640" />
  <line class="fil0 str0" x1="239" y1="1013" x2="239" y2= "955" />
  <path class="fil0 str0" d="M239 724m228 0c0,125 -104,228 -228,228 -127,0 -231,-103 -231,-228 0,-124 104,-227 231,-227 124,0 228,103 228,227zm-228 0"/>
  <polygon class="fil1" points="454,499 411,378 438,378 468,468 498,378 524,378 481,499 "/>
  <path id="1" class="fil1" d="M591 499l-24 0 0 -88c-8,8 -18,14 -30,18l0 -21c7,-2 13,-6 20,-11 7,-6 12,-12 15,-20l19 0 0 122z"/>
  <polygon id="2" class="fil2 str1" points="454,499 411,378 438,378 468,468 498,378 524,378 481,499 "/>
  <path id="3" class="fil2 str1" d="M591 499l-24 0 0 -88c-8,8 -18,14 -30,18l0 -21c7,-2 13,-6 20,-11 7,-6 12,-12 15,-20l19 0 0 122z"/>
  <path class="fil1" d="M478 1074l-24 0 0 -88c-8,8 -18,14 -30,18l0 -21c6,-2 13,-6 20,-11 7,-6 12,-12 15,-20l19 0 0 122z"/>
  <path id="1" class="fil1" d="M591 1053l0 21 -81 0c0,-8 3,-16 7,-23 5,-7 14,-17 27,-29 10,-10 16,-17 19,-20 3,-5 5,-10 5,-14 0,-6 -2,-10 -5,-12 -2,-3 -6,-5 -11,-5 -5,0 -9,2 -12,5 -2,3 -4,8 -5,14l-23 -2c2,-13 6,-22 13,-27 8,-6 17,-9 28,-9 12,0 21,3 28,10 7,6 10,14 10,24 0,6 -1,11 -3,16 -2,5 -5,10 -9,15 -3,4 -8,9 -15,16 -8,7 -12,11 -14,13 -2,2 -4,5 -5,7l46 0z"/>
  <polygon id="2" class="fil1" points="643,1074 600,953 626,953 657,1043 687,953 713,953 670,1074 "/>
  <path id="3" class="fil2 str1" d="M478 1074l-24 0 0 -88c-8,8 -18,14 -30,18l0 -21c6,-2 13,-6 20,-11 7,-6 12,-12 15,-20l19 0 0 122z"/>
  <path id="4" class="fil2 str1" d="M591 1053l0 21 -81 0c0,-8 3,-16 7,-23 5,-7 14,-17 27,-29 10,-10 16,-17 19,-20 3,-5 5,-10 5,-14 0,-6 -2,-10 -5,-12 -2,-3 -6,-5 -11,-5 -5,0 -9,2 -12,5 -2,3 -4,8 -5,14l-23 -2c2,-13 6,-22 13,-27 8,-6 17,-9 28,-9 12,0 21,3 28,10 7,6 10,14 10,24 0,6 -1,11 -3,16 -2,5 -5,10 -9,15 -3,4 -8,9 -15,16 -8,7 -12,11 -14,13 -2,2 -4,5 -5,7l46 0z"/>
  <polygon id="5" class="fil2 str1" points="643,1074 600,953 626,953 657,1043 687,953 713,953 670,1074 "/>
  <line class="fil0 str0" x1="239" y1="438" x2="239" y2= "497" />
  <line class="fil0 str0" x1="1389" y1="208" x2="239" y2= "208" />
  <line class="fil0 str0" x1="239" y1="438" x2="239" y2= "208" />
  <line class="fil0 str0" x1="1389" y1="438" x2="1389" y2= "208" />
  <line class="fil0 str0" x1="239" y1="1244" x2="239" y2= "1013" />
  <line class="fil0 str0" x1="1389" y1="1244" x2="1389" y2= "1013" />
  <line class="fil0 str0" x1="1389" y1="1244" x2="239" y2= "1244" />
  <g>
   <path class="fil3" d="M1018 133l-555 0 0 -20 555 0 0 20zm-8 -61l94 51 -94 52 0 -103z"/>
  </g>
  <path class="fil3" d="M760 14l0 -14 12 0 0 14 -12 0zm0 85l0 -72 12 0 0 72 -12 0z"/>
 </g>
</svg>
