<?xml version="1.0" encoding="UTF-8"?>
<!DOCTYPE svg PUBLIC "-//W3C//DTD SVG 1.1//EN" "http://www.w3.org/Graphics/SVG/1.1/DTD/svg11.dtd">
<!-- Creator: CorelDRAW X7 -->
<svg xmlns="http://www.w3.org/2000/svg" xml:space="preserve" width="478.321mm" height="646.78mm" version="1.1" style="shape-rendering:geometricPrecision; text-rendering:geometricPrecision; image-rendering:optimizeQuality; fill-rule:evenodd; clip-rule:evenodd"
viewBox="0 0 22731 30737"
 xmlns:xlink="http://www.w3.org/1999/xlink">
 <defs>
  <style type="text/css">
   <![CDATA[
    .str1 {stroke:black;stroke-width:3.62123}
    .str0 {stroke:black;stroke-width:58.5432;stroke-linecap:round;stroke-linejoin:round}
    .fil0 {fill:none}
    .fil4 {fill:none;fill-rule:nonzero}
    .fil3 {fill:#373435;fill-rule:nonzero}
    .fil1 {fill:black;fill-rule:nonzero}
    .fil2 {fill:black;fill-rule:nonzero}
   ]]>
  </style>
 </defs>
 <g id="Camada_x0020_1">
  <metadata id="CorelCorpID_0Corel-Layer"/>
  <line class="fil0 str0" x1="18647" y1="10099" x2="18647" y2= "10743" />
  <line class="fil0 str0" x1="17300" y1="9455" x2="18647" y2= "10099" />
  <line class="fil0 str0" x1="19993" y1="8109" x2="17300" y2= "9455" />
  <line class="fil0 str0" x1="17300" y1="6762" x2="19993" y2= "8109" />
  <line class="fil0 str0" x1="19993" y1="5474" x2="17300" y2= "6762" />
  <line class="fil0 str0" x1="18647" y1="4128" x2="18647" y2= "4772" />
  <path class="fil1" d="M20486 6821l0 -1384 588 0c148,0 255,13 322,38 68,25 121,69 161,132 41,64 61,136 61,218 0,104 -30,190 -91,257 -61,68 -152,110 -273,128 60,35 110,74 149,116 39,42 92,117 158,225l169 270 -334 0 -200 -302c-72,-108 -121,-175 -148,-203 -26,-28 -54,-47 -84,-58 -30,-10 -77,-15 -141,-15l-57 0 0 578 -280 0zm280 -798l207 0c134,0 217,-6 250,-17 34,-12 60,-31 79,-59 19,-28 28,-62 28,-104 0,-47 -12,-84 -37,-113 -25,-29 -60,-47 -105,-54 -23,-3 -91,-5 -204,-5l-218 0 0 352z"/>
  <path id="1" class="fil1" d="M22499 6821l-264 0 0 -1002c-97,91 -211,158 -342,202l0 -242c69,-22 144,-65 225,-128 81,-64 136,-137 166,-221l215 0 0 1391z"/>
  <line class="fil0 str0" x1="18647" y1="4772" x2="19993" y2= "5474" />
  <line class="fil0 str0" x1="2020" y1="15076" x2="3366" y2= "15076" />
  <line class="fil0 str0" x1="2020" y1="18413" x2="3366" y2= "18413" />
  <line class="fil0 str0" x1="2722" y1="14432" x2="2722" y2= "15720" />
  <line class="fil0 str0" x1="2722" y1="20052" x2="2722" y2= "19408" />
  <path class="fil0 str0" d="M2664 16715m2634 0c0,1464 -1171,2635 -2634,2635 -1464,0 -2635,-1171 -2635,-2635 0,-1464 1171,-2635 2635,-2635 1463,0 2634,1171 2634,2635zm-2634 0"/>
  <polygon class="fil1" points="5208,14139 4713,12756 5016,12756 5367,13780 5704,12756 6002,12756 5510,14139 "/>
  <path id="1" class="fil1" d="M6761 14139l-265 0 0 -1001c-96,90 -210,158 -342,201l0 -241c69,-23 145,-66 225,-129 81,-63 137,-137 167,-221l215 0 0 1391z"/>
  <polygon class="fil1" points="5208,20755 4713,19371 5016,19371 5367,20395 5704,19371 6002,19371 5510,20755 "/>
  <line class="fil0 str0" x1="2722" y1="13436" x2="2722" y2= "14080" />
  <line class="fil0 str0" x1="18647" y1="19408" x2="18647" y2= "20052" />
  <line class="fil0 str0" x1="17300" y1="18764" x2="18647" y2= "19408" />
  <line class="fil0 str0" x1="19993" y1="17418" x2="17300" y2= "18764" />
  <line class="fil0 str0" x1="17300" y1="16071" x2="19993" y2= "17418" />
  <line class="fil0 str0" x1="19993" y1="14724" x2="17300" y2= "16071" />
  <line class="fil0 str0" x1="18647" y1="13436" x2="18647" y2= "14080" />
  <path class="fil1" d="M20486 16130l0 -1384 588 0c148,0 255,13 322,38 68,24 121,68 161,132 41,64 61,136 61,218 0,104 -30,190 -91,257 -61,68 -152,110 -273,128 60,35 110,74 149,116 39,42 92,117 158,225l169 270 -334 0 -200 -303c-72,-107 -121,-174 -148,-202 -26,-28 -54,-47 -84,-58 -30,-10 -77,-15 -141,-15l-57 0 0 578 -280 0zm280 -798l207 0c134,0 217,-6 250,-17 34,-12 60,-31 79,-59 19,-28 28,-63 28,-104 0,-47 -12,-84 -37,-113 -25,-29 -60,-47 -105,-54 -23,-3 -91,-5 -204,-5l-218 0 0 352z"/>
  <path id="1" class="fil1" d="M22718 15884l0 246 -930 0c10,-94 41,-182 91,-265 50,-84 149,-195 298,-333 119,-111 192,-187 219,-226 37,-55 55,-109 55,-163 0,-59 -16,-105 -48,-137 -31,-31 -75,-47 -131,-47 -55,0 -99,16 -132,50 -32,33 -51,89 -56,166l-265 -26c16,-146 65,-251 148,-315 83,-64 187,-96 312,-96 136,0 243,38 322,111 78,74 117,166 117,276 0,62 -12,121 -34,178 -22,56 -58,115 -106,177 -32,41 -90,100 -174,177 -84,77 -137,128 -159,153 -23,26 -41,50 -55,74l528 0z"/>
  <line class="fil0 str0" x1="18647" y1="14080" x2="19993" y2= "14724" />
  <line class="fil0 str0" x1="18647" y1="28717" x2="18647" y2= "29361" />
  <line class="fil0 str0" x1="17300" y1="28014" x2="18647" y2= "28717" />
  <line class="fil0 str0" x1="19993" y1="26726" x2="17300" y2= "28014" />
  <line class="fil0 str0" x1="17300" y1="25380" x2="19993" y2= "26726" />
  <line class="fil0 str0" x1="19993" y1="24033" x2="17300" y2= "25380" />
  <line class="fil0 str0" x1="18647" y1="22745" x2="18647" y2= "23389" />
  <path class="fil1" d="M20486 25438l0 -1383 588 0c148,0 255,13 322,37 68,25 121,69 161,133 41,63 61,136 61,218 0,104 -30,189 -91,257 -61,68 -152,110 -273,128 60,35 110,74 149,116 39,42 92,117 158,225l169 269 -334 0 -200 -302c-72,-107 -121,-175 -148,-203 -26,-27 -54,-47 -84,-57 -30,-10 -77,-15 -141,-15l-57 0 0 577 -280 0zm280 -798l207 0c134,0 217,-5 250,-17 34,-11 60,-31 79,-58 19,-28 28,-63 28,-104 0,-47 -12,-84 -37,-113 -25,-29 -60,-47 -105,-54 -23,-4 -91,-5 -204,-5l-218 0 0 351z"/>
  <path id="1" class="fil1" d="M21813 25072l257 -32c8,66 30,116 66,151 36,35 79,52 129,52 55,0 101,-21 138,-62 37,-42 56,-98 56,-169 0,-66 -18,-119 -54,-158 -36,-39 -79,-59 -130,-59 -34,0 -75,7 -122,20l30 -215c71,2 126,-14 163,-47 38,-33 57,-77 57,-132 0,-47 -14,-84 -42,-112 -28,-28 -64,-41 -110,-41 -46,0 -84,15 -116,47 -32,31 -52,77 -59,138l-243 -42c17,-84 42,-151 77,-202 34,-50 82,-90 143,-119 61,-28 130,-43 206,-43 130,0 234,42 313,125 65,68 97,146 97,232 0,121 -66,219 -199,291 79,18 142,56 190,115 47,59 71,131 71,214 0,122 -44,225 -133,311 -88,86 -199,128 -331,128 -125,0 -228,-36 -310,-108 -83,-72 -130,-167 -144,-283z"/>
  <line class="fil0 str0" x1="18647" y1="23389" x2="19993" y2= "24033" />
  <line class="fil0 str0" x1="18647" y1="2781" x2="2722" y2= "2781" />
  <line class="fil0 str0" x1="18647" y1="4128" x2="18647" y2= "2781" />
  <line class="fil0 str0" x1="2722" y1="13436" x2="2722" y2= "2781" />
  <line class="fil0 str0" x1="18647" y1="13436" x2="18647" y2= "10743" />
  <line class="fil0 str0" x1="18647" y1="22745" x2="18647" y2= "20052" />
  <line class="fil0 str0" x1="2722" y1="30707" x2="2722" y2= "20052" />
  <line class="fil0 str0" x1="18647" y1="30707" x2="18647" y2= "29361" />
  <line class="fil0 str0" x1="18647" y1="30707" x2="2722" y2= "30707" />
  <g>
   <path class="fil2" d="M14386 1892l-9405 0 0 -95 9405 0 0 95zm-39 -296l451 249 -451 248 0 -497z"/>
  </g>
  <polygon class="fil3" points="9445,1382 9445,2 9628,2 9628,1382 "/>
  <polygon id="1" class="fil4 str1" points="9445,1382 9445,2 9628,2 9628,1382 "/>
  <polygon class="fil3" points="10003,1563 10003,1139 9845,1139 9845,1083 10225,1083 10225,1139 10067,1139 10067,1563 "/>
  <polygon id="1" class="fil4 str1" points="10003,1563 10003,1139 9845,1139 9845,1083 10225,1083 10225,1139 10067,1139 10067,1563 "/>
 </g>
</svg>
