<?xml version="1.0" encoding="UTF-8"?>
<!DOCTYPE svg PUBLIC "-//W3C//DTD SVG 1.1//EN" "http://www.w3.org/Graphics/SVG/1.1/DTD/svg11.dtd">
<!-- Creator: CorelDRAW X7 -->
<svg xmlns="http://www.w3.org/2000/svg" xml:space="preserve" width="210mm" height="297mm" version="1.1" style="shape-rendering:geometricPrecision; text-rendering:geometricPrecision; image-rendering:optimizeQuality; fill-rule:evenodd; clip-rule:evenodd"
viewBox="0 0 21000 29700"
 xmlns:xlink="http://www.w3.org/1999/xlink">
 <defs>
  <style type="text/css">
   <![CDATA[
    .str2 {stroke:black;stroke-width:20}
    .str1 {stroke:black;stroke-width:7.62}
    .str0 {stroke:black;stroke-width:188.63;stroke-linecap:round;stroke-linejoin:round}
    .fil0 {fill:none}
    .fil4 {fill:none;fill-rule:nonzero}
    .fil5 {fill:black}
    .fil3 {fill:#373435;fill-rule:nonzero}
    .fil1 {fill:black;fill-rule:nonzero}
    .fil2 {fill:black;fill-rule:nonzero}
   ]]>
  </style>
 </defs>
 <g id="Camada_x0020_1">
  <metadata id="CorelCorpID_0Corel-Layer"/>
  <line class="fil0 str0" x1="112420" y1="119637" x2="112420" y2= "120958" />
  <line class="fil0 str0" x1="109779" y1="118317" x2="112420" y2= "119637" />
  <line class="fil0 str0" x1="114872" y1="115864" x2="109779" y2= "118317" />
  <line class="fil0 str0" x1="109779" y1="113224" x2="114872" y2= "115864" />
  <line class="fil0 str0" x1="114872" y1="110583" x2="109779" y2= "113224" />
  <line class="fil0 str0" x1="112420" y1="108130" x2="112420" y2= "109262" />
  <path class="fil1" d="M115888 113224l0 -2567 1092 0c274,0 473,24 598,70 125,46 224,127 298,245 75,118 113,253 113,405 0,192 -56,351 -169,477 -113,125 -282,204 -506,237 111,65 203,137 276,215 73,78 171,217 294,417l313 501 -620 0 -371 -561c-134,-199 -225,-324 -275,-376 -49,-52 -101,-87 -156,-106 -55,-20 -142,-29 -262,-29l-105 0 0 1072 -520 0zm520 -1481l384 0c248,0 403,-10 465,-31 61,-21 110,-58 145,-109 35,-51 53,-116 53,-193 0,-87 -24,-156 -70,-210 -46,-53 -111,-86 -194,-100 -43,-6 -169,-9 -378,-9l-405 0 0 652z"/>
  <path id="1" class="fil1" d="M119624 113224l-491 0 0 -1858c-180,168 -391,293 -635,374l0 -448c129,-42 268,-122 418,-239 150,-117 253,-254 309,-410l399 0 0 2581z"/>
  <path class="fil1" d="M117035 119071l-491 0 0 -1858c-179,169 -390,294 -634,374l0 -448c128,-41 268,-121 417,-239 151,-117 254,-253 310,-409l398 0 0 2580z"/>
  <path id="1" class="fil1" d="M117882 119071l0 -2566 1091 0c274,0 474,23 598,69 125,46 224,128 299,246 74,118 112,252 112,404 0,193 -56,352 -169,477 -113,126 -281,205 -506,238 112,65 204,136 276,215 73,78 171,217 294,417l313 500 -620 0 -371 -560c-133,-199 -225,-324 -274,-376 -49,-52 -101,-88 -156,-107 -56,-19 -143,-28 -262,-28l-106 0 0 1071 -519 0zm519 -1480l384 0c248,0 403,-11 465,-32 62,-21 111,-57 145,-108 36,-52 53,-116 53,-193 0,-87 -23,-156 -69,-210 -46,-53 -111,-87 -195,-100 -42,-6 -168,-9 -378,-9l-405 0 0 652z"/>
  <line class="fil0 str0" x1="112420" y1="109262" x2="114872" y2= "110583" />
  <line class="fil0 str0" x1="85256" y1="111337" x2="87897" y2= "111337" />
  <line class="fil0 str0" x1="85256" y1="117751" x2="87897" y2= "117751" />
  <line class="fil0 str0" x1="86577" y1="110017" x2="86577" y2= "112469" />
  <line class="fil0 str0" x1="86577" y1="120958" x2="86577" y2= "119637" />
  <path class="fil0 str0" d="M86577 114355m4904 0c0,2830 -2263,5093 -4904,5093 -2830,0 -5093,-2263 -5093,-5093 0,-2829 2263,-5093 5093,-5093 2641,0 4904,2264 4904,5093zm-4904 0"/>
  <polygon class="fil1" points="91268,109451 90350,106885 90911,106885 91563,108784 92188,106885 92740,106885 91827,109451 "/>
  <path id="1" class="fil1" d="M94149 109451l-491 0 0 -1858c-179,169 -391,293 -635,374l0 -448c129,-42 268,-121 418,-239 150,-117 253,-254 309,-410l399 0 0 2581z"/>
  <polygon class="fil1" points="91268,122278 90350,119712 90911,119712 91563,121611 92188,119712 92740,119712 91827,122278 "/>
  <line class="fil0 str0" x1="86577" y1="108130" x2="86577" y2= "109262" />
  <line class="fil0 str0" x1="130340" y1="119637" x2="130340" y2= "120958" />
  <line class="fil0 str0" x1="127888" y1="118317" x2="130340" y2= "119637" />
  <line class="fil0 str0" x1="132981" y1="115864" x2="127888" y2= "118317" />
  <line class="fil0 str0" x1="127888" y1="113224" x2="132981" y2= "115864" />
  <line class="fil0 str0" x1="132981" y1="110583" x2="127888" y2= "113224" />
  <line class="fil0 str0" x1="130340" y1="108130" x2="130340" y2= "109262" />
  <path class="fil1" d="M133997 113224l0 -2567 1092 0c274,0 474,24 598,70 125,46 224,127 298,245 75,118 113,253 113,405 0,192 -56,351 -169,477 -113,125 -282,204 -506,237 111,65 203,137 276,215 73,78 171,217 294,417l313 501 -620 0 -371 -561c-134,-199 -225,-324 -275,-376 -49,-52 -101,-87 -155,-106 -56,-20 -143,-29 -263,-29l-105 0 0 1072 -520 0zm520 -1481l384 0c248,0 403,-10 465,-31 62,-21 110,-58 145,-109 35,-51 53,-116 53,-193 0,-87 -24,-156 -70,-210 -46,-53 -111,-86 -194,-100 -43,-6 -169,-9 -378,-9l-405 0 0 652z"/>
  <path id="1" class="fil1" d="M138138 112768l0 456 -1724 0c18,-174 74,-337 168,-492 93,-155 277,-360 552,-617 222,-206 357,-347 408,-420 67,-102 101,-202 101,-302 0,-110 -29,-194 -88,-253 -59,-59 -140,-88 -243,-88 -103,0 -184,31 -245,93 -61,61 -95,164 -105,308l-491 -49c29,-271 121,-466 275,-584 154,-118 346,-177 577,-177 254,0 453,69 598,205 144,137 217,307 217,511 0,116 -21,226 -62,331 -42,105 -107,214 -198,329 -59,76 -167,185 -322,328 -156,143 -255,237 -296,285 -42,46 -75,92 -101,136l979 0z"/>
  <path class="fil1" d="M133997 119071l0 -2566 1092 0c274,0 474,23 598,69 125,46 224,128 298,246 75,118 113,252 113,404 0,193 -56,352 -169,477 -113,126 -282,205 -506,238 111,65 203,136 276,215 73,78 171,217 294,417l313 500 -620 0 -371 -560c-134,-199 -225,-324 -275,-376 -49,-52 -101,-88 -155,-107 -56,-19 -143,-28 -263,-28l-105 0 0 1071 -520 0zm520 -1480l384 0c248,0 403,-11 465,-32 62,-21 110,-57 145,-108 35,-52 53,-116 53,-193 0,-87 -24,-156 -70,-210 -46,-53 -111,-87 -194,-100 -43,-6 -169,-9 -378,-9l-405 0 0 652z"/>
  <line class="fil0 str0" x1="130340" y1="109262" x2="132981" y2= "110583" />
  <line class="fil0 str0" x1="145997" y1="119637" x2="145997" y2= "120958" />
  <line class="fil0 str0" x1="143356" y1="118317" x2="145997" y2= "119637" />
  <line class="fil0 str0" x1="148449" y1="115864" x2="143356" y2= "118317" />
  <line class="fil0 str0" x1="143356" y1="113224" x2="148449" y2= "115864" />
  <line class="fil0 str0" x1="148449" y1="110583" x2="143356" y2= "113224" />
  <line class="fil0 str0" x1="145997" y1="108130" x2="145997" y2= "109262" />
  <path class="fil1" d="M149466 113224l0 -2567 1091 0c274,0 474,24 598,70 125,46 224,127 299,245 74,118 112,253 112,405 0,192 -56,351 -169,477 -113,125 -282,204 -506,237 112,65 204,137 276,215 73,78 171,217 294,417l313 501 -620 0 -371 -561c-133,-199 -225,-324 -274,-376 -49,-52 -101,-87 -156,-106 -56,-20 -143,-29 -263,-29l-105 0 0 1072 -519 0zm519 -1481l384 0c248,0 403,-10 465,-31 62,-21 111,-58 145,-109 35,-51 53,-116 53,-193 0,-87 -23,-156 -69,-210 -46,-53 -112,-86 -195,-100 -43,-6 -169,-9 -378,-9l-405 0 0 652z"/>
  <path id="1" class="fil1" d="M151928 112543l477 -58c15,122 56,215 122,280 66,64 146,97 240,97 101,0 186,-39 255,-116 69,-77 104,-181 104,-313 0,-123 -33,-222 -100,-294 -66,-73 -147,-109 -242,-109 -63,0 -138,13 -225,37l55 -399c132,4 233,-26 303,-87 70,-61 105,-143 105,-245 0,-87 -26,-155 -77,-207 -52,-52 -120,-77 -205,-77 -85,0 -156,29 -215,87 -60,59 -96,144 -109,257l-452 -77c32,-157 79,-282 143,-376 63,-93 152,-166 266,-220 113,-53 241,-80 382,-80 241,0 435,77 581,232 120,126 180,270 180,429 0,226 -123,407 -370,541 147,32 264,103 353,212 88,110 132,243 132,398 0,226 -83,418 -247,577 -164,159 -368,238 -613,238 -232,0 -424,-67 -577,-201 -153,-134 -241,-309 -266,-526z"/>
  <path class="fil1" d="M149466 119071l0 -2566 1091 0c274,0 474,23 598,69 125,46 224,128 299,246 74,118 112,252 112,404 0,193 -56,352 -169,477 -113,126 -282,205 -506,238 112,65 204,136 276,215 73,78 171,217 294,417l313 500 -620 0 -371 -560c-133,-199 -225,-324 -274,-376 -49,-52 -101,-88 -156,-107 -56,-19 -143,-28 -263,-28l-105 0 0 1071 -519 0zm519 -1480l384 0c248,0 403,-11 465,-32 62,-21 111,-57 145,-108 35,-52 53,-116 53,-193 0,-87 -23,-156 -69,-210 -46,-53 -112,-87 -195,-100 -43,-6 -169,-9 -378,-9l-405 0 0 652z"/>
  <line class="fil0 str0" x1="145997" y1="109262" x2="148449" y2= "110583" />
  <line class="fil0 str0" x1="112420" y1="102849" x2="86577" y2= "102849" />
  <line class="fil0 str0" x1="130340" y1="102849" x2="112420" y2= "102849" />
  <line class="fil0 str0" x1="145997" y1="102849" x2="130340" y2= "102849" />
  <line class="fil0 str0" x1="86577" y1="108130" x2="86577" y2= "102849" />
  <line class="fil0 str0" x1="112420" y1="108130" x2="112420" y2= "102849" />
  <line class="fil0 str0" x1="130340" y1="108130" x2="130340" y2= "102849" />
  <line class="fil0 str0" x1="145997" y1="108130" x2="145997" y2= "102849" />
  <line class="fil0 str0" x1="86577" y1="126051" x2="86577" y2= "120958" />
  <line class="fil0 str0" x1="112420" y1="126051" x2="112420" y2= "120958" />
  <line class="fil0 str0" x1="112420" y1="126051" x2="86577" y2= "126051" />
  <line class="fil0 str0" x1="130340" y1="126051" x2="130340" y2= "120958" />
  <line class="fil0 str0" x1="130340" y1="126051" x2="112420" y2= "126051" />
  <line class="fil0 str0" x1="145997" y1="126051" x2="145997" y2= "120958" />
  <line class="fil0 str0" x1="145997" y1="126051" x2="130340" y2= "126051" />
  <g>
   <path class="fil2" d="M103659 101421l-11239 0 0 -200 11239 0 0 200zm-82 -623l950 523 -950 522 0 -1045z"/>
  </g>
  <polygon class="fil3" points="97634,100347 97634,97442 98019,97442 98019,100347 "/>
  <polygon id="1" class="fil4 str1" points="97634,100347 97634,97442 98019,97442 98019,100347 "/>
  <polygon class="fil3" points="98807,100728 98807,99836 98474,99836 98474,99718 99274,99718 99274,99836 98941,99836 98941,100728 "/>
  <polygon id="1" class="fil4 str1" points="98807,100728 98807,99836 98474,99836 98474,99718 99274,99718 99274,99836 98941,99836 98941,100728 "/>
  <circle class="fil5 str2" cx="112420" cy="102849" r="847"/>
  <circle class="fil5 str2" cx="130340" cy="102849" r="847"/>
  <circle class="fil5 str2" cx="112420" cy="126051" r="847"/>
  <circle class="fil5 str2" cx="130340" cy="126051" r="847"/>
 </g>
</svg>
