<?xml version="1.0" encoding="UTF-8"?>
<!DOCTYPE svg PUBLIC "-//W3C//DTD SVG 1.1//EN" "http://www.w3.org/Graphics/SVG/1.1/DTD/svg11.dtd">
<!-- Creator: CorelDRAW X7 -->
<svg xmlns="http://www.w3.org/2000/svg" xml:space="preserve" width="722.414mm" height="294.69mm" version="1.1" style="shape-rendering:geometricPrecision; text-rendering:geometricPrecision; image-rendering:optimizeQuality; fill-rule:evenodd; clip-rule:evenodd"
viewBox="0 0 36810 15016"
 xmlns:xlink="http://www.w3.org/1999/xlink">
 <defs>
  <style type="text/css">
   <![CDATA[
    .str2 {stroke:black;stroke-width:10.1907}
    .str1 {stroke:black;stroke-width:3.88267}
    .str0 {stroke:black;stroke-width:96.1138;stroke-linecap:round;stroke-linejoin:round}
    .fil0 {fill:none}
    .fil4 {fill:none;fill-rule:nonzero}
    .fil5 {fill:black}
    .fil3 {fill:#373435;fill-rule:nonzero}
    .fil1 {fill:black;fill-rule:nonzero}
    .fil2 {fill:black;fill-rule:nonzero}
   ]]>
  </style>
 </defs>
 <g id="Camada_x0020_1">
  <metadata id="CorelCorpID_0Corel-Layer"/>
  <line class="fil0 str0" x1="15811" y1="11311" x2="15811" y2= "11984" />
  <line class="fil0 str0" x1="14466" y1="10638" x2="15811" y2= "11311" />
  <line class="fil0 str0" x1="17061" y1="9389" x2="14466" y2= "10638" />
  <line class="fil0 str0" x1="14466" y1="8043" x2="17061" y2= "9389" />
  <line class="fil0 str0" x1="17061" y1="6697" x2="14466" y2= "8043" />
  <line class="fil0 str0" x1="15811" y1="5448" x2="15811" y2= "6025" />
  <path class="fil1" d="M17578 8043l0 -1307 557 0c139,0 241,11 304,35 64,23 114,65 152,125 38,60 58,129 58,206 0,98 -29,179 -86,243 -58,64 -144,104 -258,121 57,33 104,70 140,110 37,39 87,110 150,212l160 255 -316 0 -189 -285c-68,-102 -115,-166 -140,-192 -25,-26 -52,-45 -80,-54 -28,-10 -72,-15 -133,-15l-54 0 0 546 -265 0zm265 -754l196 0c126,0 205,-6 237,-16 31,-11 56,-30 74,-56 18,-26 27,-59 27,-98 0,-44 -12,-79 -36,-107 -23,-27 -56,-44 -99,-51 -22,-3 -86,-5 -193,-5l-206 0 0 333z"/>
  <path id="1" class="fil1" d="M19482 8043l-250 0 0 -947c-92,86 -200,150 -324,191l0 -228c66,-22 137,-62 213,-122 77,-60 129,-129 158,-209l203 0 0 1315z"/>
  <line class="fil0 str0" x1="15811" y1="6025" x2="17061" y2= "6697" />
  <line class="fil0 str0" x1="1970" y1="7082" x2="3316" y2= "7082" />
  <line class="fil0 str0" x1="1970" y1="10350" x2="3316" y2= "10350" />
  <line class="fil0 str0" x1="2643" y1="6409" x2="2643" y2= "7659" />
  <line class="fil0 str0" x1="2643" y1="11984" x2="2643" y2= "11311" />
  <path class="fil0 str0" d="M2643 8620m2499 0c0,1442 -1153,2595 -2499,2595 -1442,0 -2595,-1153 -2595,-2595 0,-1442 1153,-2595 2595,-2595 1346,0 2499,1153 2499,2595zm-2499 0"/>
  <polygon class="fil1" points="5033,6121 4566,4813 4852,4813 5184,5781 5502,4813 5784,4813 5319,6121 "/>
  <path id="1" class="fil1" d="M6501 6121l-250 0 0 -947c-91,86 -199,150 -323,191l0 -229c65,-21 136,-61 213,-121 76,-60 129,-130 157,-209l203 0 0 1315z"/>
  <polygon class="fil1" points="5033,12657 4566,11349 4852,11349 5184,12317 5502,11349 5784,11349 5319,12657 "/>
  <line class="fil0 str0" x1="2643" y1="5448" x2="2643" y2= "6025" />
  <line class="fil0 str0" x1="24942" y1="11311" x2="24942" y2= "11984" />
  <line class="fil0 str0" x1="23693" y1="10638" x2="24942" y2= "11311" />
  <line class="fil0 str0" x1="26288" y1="9389" x2="23693" y2= "10638" />
  <line class="fil0 str0" x1="23693" y1="8043" x2="26288" y2= "9389" />
  <line class="fil0 str0" x1="26288" y1="6697" x2="23693" y2= "8043" />
  <line class="fil0 str0" x1="24942" y1="5448" x2="24942" y2= "6025" />
  <path class="fil1" d="M26806 8043l0 -1307 556 0c139,0 241,11 304,35 64,23 115,65 153,125 38,60 57,129 57,206 0,98 -29,179 -86,243 -58,64 -144,104 -258,121 57,33 104,70 141,110 37,39 87,110 149,212l160 255 -316 0 -189 -285c-68,-102 -115,-166 -140,-192 -25,-26 -51,-45 -79,-54 -29,-10 -73,-15 -134,-15l-53 0 0 546 -265 0zm265 -754l195 0c127,0 205,-6 237,-16 31,-11 56,-30 74,-56 18,-26 27,-59 27,-98 0,-44 -12,-79 -36,-107 -23,-27 -56,-44 -99,-51 -21,-3 -86,-5 -192,-5l-206 0 0 333z"/>
  <path id="1" class="fil1" d="M28915 7811l0 232 -878 0c9,-88 38,-172 85,-250 48,-79 142,-184 282,-315 113,-105 182,-176 208,-214 34,-52 51,-103 51,-154 0,-56 -15,-98 -45,-129 -30,-30 -71,-45 -124,-45 -52,0 -93,16 -124,48 -31,31 -49,84 -54,157l-250 -25c15,-138 62,-237 140,-298 79,-60 177,-90 294,-90 129,0 231,35 305,105 73,70 110,156 110,260 0,59 -10,115 -31,169 -21,53 -55,109 -101,167 -30,39 -85,95 -164,168 -80,72 -130,120 -151,144 -21,24 -38,48 -51,70l498 0z"/>
  <line class="fil0 str0" x1="24942" y1="6025" x2="26288" y2= "6697" />
  <line class="fil0 str0" x1="32920" y1="11311" x2="32920" y2= "11984" />
  <line class="fil0 str0" x1="31574" y1="10638" x2="32920" y2= "11311" />
  <line class="fil0 str0" x1="34169" y1="9389" x2="31574" y2= "10638" />
  <line class="fil0 str0" x1="31574" y1="8043" x2="34169" y2= "9389" />
  <line class="fil0 str0" x1="34169" y1="6697" x2="31574" y2= "8043" />
  <line class="fil0 str0" x1="32920" y1="5448" x2="32920" y2= "6025" />
  <path class="fil1" d="M34687 8043l0 -1307 556 0c140,0 242,11 305,35 64,23 114,65 152,125 38,60 57,129 57,206 0,98 -28,179 -86,243 -57,64 -143,104 -258,121 57,33 104,70 141,110 37,39 87,110 150,212l159 255 -315 0 -190 -285c-67,-102 -114,-166 -139,-192 -25,-26 -52,-45 -80,-54 -28,-10 -72,-15 -133,-15l-54 0 0 546 -265 0zm265 -754l195 0c127,0 206,-6 238,-16 31,-11 56,-30 74,-56 17,-26 26,-59 26,-98 0,-44 -12,-79 -35,-107 -23,-27 -57,-44 -99,-51 -22,-3 -86,-5 -193,-5l-206 0 0 333z"/>
  <path id="1" class="fil1" d="M35942 7696l243 -29c8,62 28,109 62,142 34,33 75,50 123,50 51,0 94,-20 129,-59 35,-40 53,-93 53,-160 0,-63 -17,-113 -50,-150 -34,-36 -75,-55 -124,-55 -32,0 -70,6 -114,19l27 -204c68,2 119,-13 155,-44 36,-31 53,-73 53,-125 0,-44 -13,-79 -39,-105 -26,-27 -61,-40 -104,-40 -43,0 -80,15 -110,45 -30,30 -49,73 -55,131l-231 -40c17,-79 41,-143 73,-191 32,-47 78,-85 136,-112 57,-27 123,-41 194,-41 123,0 222,39 296,118 61,65 92,138 92,219 0,115 -63,207 -188,276 75,16 134,52 179,108 45,56 68,124 68,203 0,114 -42,212 -126,293 -84,81 -188,122 -313,122 -118,0 -216,-34 -293,-103 -78,-68 -123,-157 -136,-268z"/>
  <line class="fil0 str0" x1="32920" y1="6025" x2="34169" y2= "6697" />
  <line class="fil0 str0" x1="15811" y1="2757" x2="2643" y2= "2757" />
  <line class="fil0 str0" x1="24942" y1="2757" x2="15811" y2= "2757" />
  <line class="fil0 str0" x1="32920" y1="2757" x2="24942" y2= "2757" />
  <line class="fil0 str0" x1="2643" y1="5448" x2="2643" y2= "2757" />
  <line class="fil0 str0" x1="15811" y1="5448" x2="15811" y2= "2757" />
  <line class="fil0 str0" x1="24942" y1="5448" x2="24942" y2= "2757" />
  <line class="fil0 str0" x1="32920" y1="5448" x2="32920" y2= "2757" />
  <line class="fil0 str0" x1="2643" y1="14579" x2="2643" y2= "11984" />
  <line class="fil0 str0" x1="15811" y1="14579" x2="15811" y2= "11984" />
  <line class="fil0 str0" x1="15811" y1="14579" x2="2643" y2= "14579" />
  <line class="fil0 str0" x1="24942" y1="14579" x2="24942" y2= "11984" />
  <line class="fil0 str0" x1="24942" y1="14579" x2="15811" y2= "14579" />
  <line class="fil0 str0" x1="32920" y1="14579" x2="32920" y2= "11984" />
  <line class="fil0 str0" x1="32920" y1="14579" x2="24942" y2= "14579" />
  <g>
   <path class="fil2" d="M11347 2029l-5727 0 0 -102 5727 0 0 102zm-42 -317l484 266 -484 267 0 -533z"/>
  </g>
  <polygon class="fil3" points="8277,1482 8277,2 8473,2 8473,1482 "/>
  <polygon id="1" class="fil4 str1" points="8277,1482 8277,2 8473,2 8473,1482 "/>
  <polygon class="fil3" points="8875,1676 8875,1222 8705,1222 8705,1161 9113,1161 9113,1222 8943,1222 8943,1676 "/>
  <polygon id="1" class="fil4 str1" points="8875,1676 8875,1222 8705,1222 8705,1161 9113,1161 9113,1222 8943,1222 8943,1676 "/>
  <circle class="fil5 str2" cx="15811" cy="2757" r="431"/>
  <circle class="fil5 str2" cx="24942" cy="2757" r="431"/>
  <circle class="fil5 str2" cx="15811" cy="14579" r="431"/>
  <circle class="fil5 str2" cx="24942" cy="14579" r="431"/>
 </g>
</svg>
